<svg xmlns="http://www.w3.org/2000/svg" data-name="Layer 1" viewBox="0 0 239.37 239.37"><path d="M195.99 129.09h7.47c-4.86 39.55-38.7 70.28-79.53 70.28S47.16 166.69 44 125.39h74.72c-.15-2.86-.27-5.77-.44-8.68-.22-3.92-.42-7.89-.69-11.72-.54-8.09-1.43-15.46-3.43-19.87-.07-.15-.12-.3-.22-.45-.12-.27-.25-.52-.37-.76-2.49-4.66-7.42-7.84-13.07-7.84-8.16 0-14.8 6.63-14.8 14.79s6.64 14.8 14.8 14.8c3.45 0 6.61-1.19 9.12-3.16l.57 8.31a22.019 22.019 0 0 1-9.69 2.25c-12.23 0-22.2-9.97-22.2-22.2s9.97-22.19 22.2-22.19c8.36 0 15.66 4.66 19.43 11.49.03.05.05.1.07.12 3.53 6.12 4.54 16.43 5.21 27.84h70.63c-5.35-34.87-35.56-61.65-71.91-61.65s-68.66 28.68-72.38 65.35h-7.43c3.75-40.74 38.1-72.75 79.81-72.75s78.12 33.96 80.07 76.45h-78.37c.02.27.02.52.05.79.37 6.93.59 14.08 1.25 20.72.7 7.1 1.88 13.61 4.25 18.59.05.17.14.32.22.49 2.32 5.13 7.5 8.73 13.49 8.73 8.16 0 14.79-6.63 14.79-14.79s-6.63-14.8-14.79-14.8c-3.08 0-5.97.94-8.34 2.57l-1.11-7.85a22.11 22.11 0 0 1 9.45-2.12c12.23 0 22.19 9.97 22.19 22.2s-9.96 22.19-22.19 22.19c-8.88 0-16.57-5.25-20.1-12.82-.12-.27-.27-.54-.37-.81-3.35-7.13-4.59-16.11-5.25-25.82H52.46c6.36 33.66 35.98 59.18 71.47 59.18s67.25-27.42 72.06-62.88Z" style="fill:#f72585;stroke:#f72585;stroke-miterlimit:10;stroke-width:3px"/></svg>